<?xml version="1.0" encoding="UTF-8" standalone="no"?>
<!-- Created with Inkscape (http://www.inkscape.org/) -->

<svg
   xmlns:dc="http://purl.org/dc/elements/1.1/"
   xmlns:cc="http://creativecommons.org/ns#"
   xmlns:rdf="http://www.w3.org/1999/02/22-rdf-syntax-ns#"
   xmlns:svg="http://www.w3.org/2000/svg"
   xmlns="http://www.w3.org/2000/svg"
   xmlns:sodipodi="http://sodipodi.sourceforge.net/DTD/sodipodi-0.dtd"
   xmlns:inkscape="http://www.inkscape.org/namespaces/inkscape"
   version="1.1"
   id="svg2"
   xml:space="preserve"
   width="90"
   height="40"
   viewBox="0 0 90 40.000001"
   sodipodi:docname="logo.svg"
   inkscape:version="0.92.5 (2060ec1f9f, 2020-04-08)"><metadata
     id="metadata8"><rdf:RDF><cc:Work
         rdf:about=""><dc:format>image/svg+xml</dc:format><dc:type
           rdf:resource="http://purl.org/dc/dcmitype/StillImage" /><dc:title></dc:title></cc:Work></rdf:RDF></metadata><defs
     id="defs6" /><sodipodi:namedview
     pagecolor="#ffffff"
     bordercolor="#666666"
     borderopacity="1"
     objecttolerance="10"
     gridtolerance="10"
     guidetolerance="10"
     inkscape:pageopacity="0"
     inkscape:pageshadow="2"
     inkscape:window-width="1440"
     inkscape:window-height="855"
     id="namedview4"
     showgrid="false"
     inkscape:zoom="5.3258683"
     inkscape:cx="35.499554"
     inkscape:cy="21.644473"
     inkscape:window-x="0"
     inkscape:window-y="0"
     inkscape:window-maximized="1"
     inkscape:current-layer="g10" /><g
     id="g10"
     inkscape:groupmode="layer"
     inkscape:label="Aula 04 - Projeto - Página Completa"
     transform="matrix(1.3333333,0,0,-1.3333333,0,40.000048)"><g
       id="g1639"
       transform="matrix(0.85816425,0,0,0.85816425,-20.915002,-1244.0706)"
       style="fill:#000000"><g
         id="g1621"
         transform="translate(31,1470.6367)"
         style="fill:#000000"><path
           d="m 0,-4.636719 z m -0.457031,1.669922 0.228515,0.175781 0.017578,0.369141 c 0.292969,0.714844 0.591797,1.400391 0.896485,2.056641 0.316406,0.65625 0.644531,1.330078 0.984375,2.021484 0.105469,0.222656 0.210937,0.445312 0.316406,0.667969 0.117188,0.222656 0.228516,0.451172 0.333984,0.685547 -0.011718,0.046875 -0.017578,0.09375 -0.017578,0.140625 0,0.058593 0.011719,0.123047 0.035157,0.193359 0.164062,0.234375 0.292968,0.445312 0.386718,0.632812 0.105469,0.1875 0.205079,0.38086 0.298829,0.580079 0.105468,0.234375 0.216796,0.46875 0.333984,0.703125 0.128906,0.234375 0.287109,0.46289 0.474609,0.685546 L 3.955078,6.121094 4.148438,6.103516 C 4.195312,6.126953 4.242188,6.144531 4.289062,6.15625 4.347656,6.179688 4.417969,6.191406 4.5,6.191406 L 4.816406,6.138672 C 5.203125,6.314453 5.542969,6.566406 5.835938,6.894531 6.140625,7.234375 6.445312,7.638672 6.75,8.107422 L 6.960938,8.40625 7.242188,8.230469 C 7.300781,8.195312 7.394531,8.160156 7.523438,8.125 7.652344,8.089844 7.787109,8.048828 7.927734,8.001953 8.173828,7.943359 8.414062,7.873047 8.648438,7.791016 8.882812,7.720703 9.064453,7.621094 9.193359,7.492188 L 9.28125,7.333984 C 9.304688,7.205078 9.322266,7.087891 9.333984,6.982422 9.357422,6.876953 9.380859,6.771484 9.404297,6.666016 9.451172,6.419922 9.492188,6.173828 9.527344,5.927734 9.5625,5.693359 9.585938,5.429688 9.597656,5.136719 9.65625,4.902344 9.708984,4.662109 9.755859,4.416016 9.814453,4.181641 9.867188,3.947266 9.914062,3.712891 c 0.058594,-0.339844 0.123047,-0.667969 0.19336,-0.984375 0.07031,-0.304688 0.164062,-0.597657 0.28125,-0.878907 0.117187,0 0.1875,-0.00586 0.210937,-0.017578 0.140625,0.058594 0.304688,0.09375 0.492188,0.105469 l 0.228515,0.017578 0.07031,-0.210937 c 0.02344,-0.035157 0.05273,-0.070313 0.08789,-0.105469 0.03516,-0.035156 0.07617,-0.070313 0.123046,-0.105469 0.1875,-0.011719 0.322266,-0.052734 0.404297,-0.123047 0.09375,-0.058594 0.169922,-0.117187 0.228516,-0.175781 0.02344,-0.023437 0.05273,-0.052734 0.08789,-0.087891 0.03516,-0.023437 0.06445,-0.041015 0.08789,-0.052734 L 12.726562,0.970703 12.550781,0.636719 c -0.128906,-0.246094 -0.328125,-0.486328 -0.597656,-0.720703 -0.257813,-0.234375 -0.550781,-0.427735 -0.878906,-0.580078 0.02344,-0.082032 0.03516,-0.158204 0.03516,-0.228516 0.01172,-0.070313 0.0293,-0.152344 0.05273,-0.246094 0.04687,-0.234375 0.08203,-0.480469 0.105469,-0.738281 0.03516,-0.246094 0.03516,-0.503906 0,-0.773438 -0.117187,-0.304687 -0.257812,-0.580078 -0.421875,-0.826171 -0.152344,-0.234376 -0.339844,-0.451172 -0.5625,-0.650391 C 10.072266,-4.314453 9.832031,-4.472656 9.5625,-4.601562 9.292969,-4.71875 9.011719,-4.783203 8.71875,-4.794922 8.554688,-4.759766 8.431641,-4.71875 8.349609,-4.671875 8.279297,-4.625 8.214844,-4.578125 8.15625,-4.53125 8.0625,-4.460938 7.986328,-4.414062 7.927734,-4.390625 l -0.228515,0.105469 0.070312,0.263672 c 0.035157,0.09375 0.029297,0.175781 -0.017578,0.246093 -0.035156,0.070313 -0.117187,0.164063 -0.246094,0.28125 -0.046875,0.035157 -0.08789,0.070313 -0.123047,0.105469 -0.035156,0.046875 -0.076171,0.09375 -0.123046,0.140625 l -0.351563,0.404297 0.580078,0.158203 c 0.351563,0.09375 0.585938,0.210938 0.703125,0.351563 0.117188,0.152343 0.164063,0.416015 0.140625,0.791015 -0.292969,0.058594 -0.533203,0.064453 -0.720703,0.017578 -0.1875,-0.035156 -0.375,-0.076171 -0.5625,-0.123047 C 6.779297,-1.71875 6.515625,-1.783203 6.257812,-1.841797 6,-1.888672 5.71875,-1.912109 5.414062,-1.912109 c -0.199218,0 -0.410156,0.017578 -0.632812,0.052734 l -0.193359,0.017578 -0.052735,0.193359 c 0,0.023438 -0.017578,0.046876 -0.052734,0.070313 -0.023438,0.035156 -0.046875,0.064453 -0.070313,0.087891 -0.058593,0.070312 -0.128906,0.164062 -0.210937,0.28125 -0.082031,0.117187 -0.09961,0.263672 -0.052734,0.439453 -0.082032,0.128906 -0.128907,0.263672 -0.140626,0.404297 -0.046874,-0.09375 -0.08789,-0.1875 -0.123046,-0.28125 C 3.861328,-0.728516 3.837891,-0.810547 3.814453,-0.892578 L 3.744141,-1.121094 3.515625,-1.15625 C 3.492188,-1.179688 3.46875,-1.214844 3.445312,-1.261719 c -0.011718,-0.046875 -0.011718,-0.082031 0,-0.105469 L 3.515625,-1.560547 3.339844,-1.71875 C 3.316406,-1.753906 3.287109,-1.783203 3.251953,-1.806641 3.216797,-1.830078 3.1875,-1.853516 3.164062,-1.876953 3.140625,-2.005859 3.105469,-2.128906 3.058594,-2.246094 3.023438,-2.363281 2.982422,-2.480469 2.935547,-2.597656 2.876953,-2.785156 2.818359,-2.966797 2.759766,-3.142578 2.712891,-3.318359 2.689453,-3.494141 2.689453,-3.669922 L 2.619141,-3.898438 C 2.560547,-3.992188 2.484375,-4.0625 2.390625,-4.109375 2.308594,-4.15625 2.226562,-4.197266 2.144531,-4.232422 2.027344,-4.279297 1.945312,-4.326172 1.898438,-4.373047 L 1.845703,-4.601562 1.582031,-4.636719 C 1.429688,-4.671875 1.318359,-4.695312 1.248047,-4.707031 1.189453,-4.71875 1.119141,-4.724609 1.037109,-4.724609 L 0.808594,-4.707031 C 0.667969,-4.566406 0.550781,-4.460938 0.457031,-4.390625 0.375,-4.308594 0.275391,-4.238281 0.158203,-4.179688 l -0.105469,0.140626 c -0.046875,0.09375 -0.076172,0.175781 -0.08789,0.246093 -0.011719,0.082031 -0.029297,0.164063 -0.052735,0.246094 -0.023437,0.152344 -0.058593,0.257813 -0.105468,0.316406 z M 5.150391,1.603516 C 4.986328,1.369141 4.828125,1.123047 4.675781,0.865234 c 0.082031,0.011719 0.158203,0.017578 0.228516,0.017578 0.082031,0 0.164062,0.00586 0.246094,0.017579 0.410156,0.023437 0.791015,0.052734 1.142578,0.08789 0.351562,0.035157 0.732422,0.09375 1.142578,0.175781 C 7.341797,1.597656 7.236328,2.037109 7.119141,2.482422 7.013672,2.939453 6.896484,3.396484 6.767578,3.853516 L 6.679688,3.677734 C 6.386719,3.361328 6.105469,3.021484 5.835938,2.658203 5.566406,2.294922 5.34375,1.949219 5.167969,1.621094 Z m 7.488281,-6.240235 z m 8.666016,4.746094 c -0.01172,-0.058594 -0.02344,-0.111328 -0.03516,-0.158203 -0.01172,-0.035156 -0.02344,-0.070313 -0.03516,-0.105469 -0.01172,-0.035156 -0.01758,-0.082031 -0.01758,-0.140625 0,-0.046875 0,-0.111328 0,-0.193359 -0.351563,-0.621094 -0.796875,-1.142578 -1.335938,-1.564453 -0.527343,-0.421875 -1.113281,-0.796875 -1.757812,-1.125 -0.632813,-0.316407 -1.294922,-0.609375 -1.986328,-0.878907 -0.691407,-0.257812 -1.365235,-0.539062 -2.021485,-0.84375 -0.28125,0.070313 -0.498046,0.1875 -0.65039,0.351563 -0.140625,0.164062 -0.251953,0.351562 -0.333985,0.5625 -0.07031,0.222656 -0.123047,0.46289 -0.158203,0.720703 -0.02344,0.269531 -0.04687,0.544922 -0.07031,0.826172 0.03516,0.128906 0.08203,0.234375 0.140625,0.316406 0.07031,0.09375 0.105469,0.222656 0.105469,0.386719 0.09375,0.304687 0.1875,0.603516 0.28125,0.896484 0.09375,0.292969 0.152343,0.591797 0.175781,0.896485 0.03516,0.09375 0.09961,0.158203 0.193359,0.193359 0.05859,0.5625 0.05859,1.130859 0,1.705078 -0.04687,0.585938 -0.140625,1.13086 -0.28125,1.634766 0.01172,0.117187 0.02344,0.199218 0.03516,0.246094 0.02344,0.058593 0.02344,0.099609 0,0.123046 -0.01172,0.09375 0.01758,0.140625 0.08789,0.140625 0.08203,0 0.164063,0 0.246094,0 0,0.175782 -0.03516,0.351563 -0.105469,0.527344 -0.05859,0.175781 -0.117188,0.375 -0.175781,0.597656 0.08203,0.175782 0.134765,0.345703 0.158203,0.509766 0.02344,0.175781 0.07617,0.328125 0.158203,0.457031 0.632813,-0.199218 1.236328,-0.439453 1.810547,-0.720703 0.585937,-0.28125 1.160156,-0.486328 1.722656,-0.615234 0.421875,-0.304688 0.855469,-0.609375 1.300781,-0.914063 0.445313,-0.292968 0.84961,-0.621094 1.212891,-0.984375 0.363281,-0.351562 0.667969,-0.755859 0.914062,-1.21289 0.246094,-0.457032 0.386719,-1.001953 0.421876,-1.634766 z m -4.166016,-0.966797 c 0.246094,0.09375 0.486328,0.19336 0.720703,0.298828 0.246094,0.105469 0.46875,0.222656 0.667969,0.351563 0.210937,0.140625 0.398437,0.298828 0.5625,0.474609 0.164062,0.175781 0.298828,0.386719 0.404297,0.632813 -0.07031,0.140625 -0.164063,0.263671 -0.28125,0.36914 -0.117188,0.117188 -0.234375,0.222657 -0.351563,0.316407 -0.117187,0.105468 -0.234375,0.210937 -0.351562,0.316406 -0.105469,0.105468 -0.19336,0.234375 -0.263672,0.386718 -0.152344,0.023438 -0.28711,0.064454 -0.404297,0.123047 -0.117188,0.070313 -0.234375,0.134766 -0.351563,0.19336 -0.105468,0.070312 -0.222656,0.134765 -0.351562,0.193359 -0.117188,0.058594 -0.257813,0.09375 -0.421875,0.105469 -0.257813,0.128906 -0.492188,0.222656 -0.703125,0.28125 -0.199219,0.058594 -0.351563,0.134765 -0.457031,0.228515 -0.08203,0 -0.146485,-0.017578 -0.19336,-0.052734 0.117188,-0.445312 0.205078,-0.867187 0.263672,-1.265625 0.05859,-0.386719 0.08789,-0.779297 0.08789,-1.177734 0.01172,-0.386719 -0.0059,-0.785157 -0.05274,-1.195313 -0.04687,-0.410156 -0.111328,-0.855468 -0.193359,-1.335937 0.117188,0.011719 0.222656,0.035156 0.316406,0.070312 0.105469,0.046875 0.205078,0.09375 0.298828,0.140625 0.105469,0.046875 0.210938,0.087891 0.316407,0.123047 0.117187,0.046875 0.251953,0.076172 0.404297,0.087891 0.03516,0.070312 0.08203,0.128906 0.140624,0.175781 0.07031,0.046875 0.134766,0.099609 0.19336,0.158203 z m 4.447266,-3.779297 z m 10.248046,5.273438 c -0.01172,-0.140625 0,-0.275391 0.03516,-0.404297 0.03516,-0.128906 0.07617,-0.257813 0.123047,-0.386719 0.05859,-0.117187 0.111328,-0.240234 0.158203,-0.369141 0.04687,-0.128906 0.08203,-0.257812 0.105468,-0.386718 0.02344,-0.164063 0.02344,-0.345703 0,-0.544922 -0.02344,-0.1875 -0.06445,-0.375 -0.123047,-0.5625 -0.05859,-0.175781 -0.134765,-0.339844 -0.228515,-0.492188 -0.09375,-0.140625 -0.205078,-0.246093 -0.333985,-0.316406 -0.164062,-0.210937 -0.363281,-0.375 -0.597656,-0.492187 -0.234375,-0.117188 -0.451172,-0.257813 -0.65039,-0.421875 -0.12891,-0.082032 -0.275394,-0.140625 -0.439457,-0.175782 C 29.730469,-3.951172 29.572266,-3.986328 29.408203,-4.021484 29.279297,-4.091797 29.126953,-4.167969 28.951172,-4.25 28.775391,-4.320312 28.59375,-4.390625 28.40625,-4.460938 28.21875,-4.519531 28.03125,-4.566406 27.84375,-4.601562 27.65625,-4.625 27.492188,-4.630859 27.351562,-4.619141 27,-4.748047 26.654297,-4.830078 26.314453,-4.865234 c -0.328125,-0.046875 -0.714844,-0.023438 -1.160156,0.070312 -0.421875,-0.058594 -0.814453,-0.041016 -1.177735,0.052734 -0.351562,0.09375 -0.667968,0.240235 -0.949218,0.439454 -0.269532,0.210937 -0.509766,0.457031 -0.720703,0.738281 -0.199219,0.292969 -0.363282,0.597656 -0.492188,0.914062 -0.09375,0.667969 -0.07031,1.271485 0.07031,1.810547 0.140625,0.550782 0.339843,1.054688 0.597656,1.511719 0.269531,0.46875 0.574219,0.896484 0.914062,1.283203 0.339844,0.398438 0.667969,0.785156 0.984375,1.160156 0.07031,-0.023437 0.123047,-0.023437 0.158203,0 0.04688,0.035157 0.08789,0.076172 0.123047,0.123047 0.03516,0.058594 0.07031,0.111328 0.105469,0.158203 0.04687,0.046875 0.09961,0.076172 0.158203,0.087891 0.08203,0.175781 0.199219,0.304687 0.351563,0.386719 0.164062,0.09375 0.292968,0.222656 0.386718,0.386718 0.105469,0.023438 0.19336,0.058594 0.263672,0.105469 0.07031,0.046875 0.134766,0.09961 0.19336,0.158203 0.07031,0.058594 0.140625,0.111328 0.210937,0.158204 0.07031,0.058593 0.152344,0.099609 0.246094,0.123046 v 0.19336 c 0.210937,0.09375 0.363281,0.199218 0.457031,0.316406 0.105469,0.128906 0.228516,0.28125 0.369141,0.457031 0.105469,0.011719 0.1875,0.017578 0.246094,0.017578 0.07031,0 0.169921,0.011719 0.298828,0.035157 0.09375,0.164062 0.175781,0.287109 0.246093,0.36914 0.08203,0.082032 0.199219,0.169922 0.351563,0.263672 C 28.6875,6.384766 28.839844,6.337891 29.003906,6.314453 29.179688,6.291016 29.332031,6.214844 29.460938,6.085938 29.472656,5.96875 29.507812,5.875 29.566406,5.804688 29.625,5.746094 29.689453,5.6875 29.759766,5.628906 c 0.07031,-0.046875 0.134765,-0.099609 0.193359,-0.158203 0.07031,-0.058594 0.117187,-0.140625 0.140625,-0.246094 0.04687,-0.011718 0.07617,-0.00586 0.08789,0.017579 0.02344,0.023437 0.05859,0.029296 0.105468,0.017578 0.03516,-0.164063 0.07617,-0.275391 0.123047,-0.333985 0.04687,-0.046875 0.09375,-0.146484 0.140625,-0.298828 -0.05859,-0.117187 -0.105469,-0.240234 -0.140625,-0.369141 -0.02344,-0.117187 -0.09375,-0.205078 -0.210937,-0.263671 -0.01172,-0.082032 0.01172,-0.128907 0.07031,-0.140625 0.05859,0 0.09375,-0.029297 0.105469,-0.087891 0.01172,-0.105469 -0.0059,-0.181641 -0.05273,-0.228516 0.28125,-0.457031 0.533203,-0.943359 0.755859,-1.458984 0.222656,-0.503906 0.474609,-0.984375 0.755858,-1.441406 z m -2.197265,-1.669922 c 0.04687,0.128906 0.105469,0.234375 0.175781,0.316406 0.08203,0.082031 0.128906,0.205078 0.140625,0.369141 -0.05859,0.09375 -0.09375,0.164062 -0.105469,0.210937 -0.01172,0.058594 -0.01758,0.146485 -0.01758,0.263672 -0.257812,0.363281 -0.480469,0.75 -0.667969,1.160156 -0.1875,0.421875 -0.398437,0.814453 -0.632812,1.177735 C 28.505859,2.417969 28.464844,2.371094 28.40625,2.324219 28.347656,2.277344 28.283203,2.289062 28.212891,2.359375 28.189453,2.265625 28.148438,2.195312 28.089844,2.148438 28.03125,2.113281 27.966797,2.095703 27.896484,2.095703 27.826172,2.107422 27.75,2.125 27.667969,2.148438 27.597656,2.183594 27.533203,2.224609 27.474609,2.271484 27.134766,2.001953 26.794922,1.738281 26.455078,1.480469 26.115234,1.222656 25.810547,0.923828 25.541016,0.583984 25.494141,0.560547 25.464844,0.548828 25.453125,0.548828 25.441406,0.560547 25.40625,0.554688 25.347656,0.53125 25.253906,0.308594 25.136719,0.103516 24.996094,-0.083984 c -0.128906,-0.175782 -0.257813,-0.357422 -0.386719,-0.544922 -0.128906,-0.1875 -0.240234,-0.386719 -0.333984,-0.597656 -0.09375,-0.210938 -0.146485,-0.457032 -0.158203,-0.738282 0.199218,-0.164062 0.433593,-0.263672 0.703124,-0.298828 0.269532,-0.035156 0.544922,-0.041016 0.826172,-0.017578 0.292969,0.023438 0.574219,0.058594 0.84375,0.105469 0.28125,0.058593 0.539063,0.08789 0.773438,0.08789 0.492187,0.117188 0.914062,0.269532 1.265625,0.457032 0.351562,0.199218 0.720703,0.398437 1.107422,0.597656 z m 3.269531,-3.603516 z m 7.3125,-0.035156 c -0.1875,-0.011719 -0.421875,-0.00586 -0.703125,0.017578 -0.269531,0.023438 -0.521484,-0.017578 -0.755859,-0.123047 -0.621094,0.023438 -1.253907,0.09961 -1.898438,0.228516 -0.644531,0.128906 -1.236328,0.287109 -1.77539,0.474609 -0.117188,0.128907 -0.234376,0.246094 -0.351563,0.351563 -0.117187,0.117187 -0.275391,0.199218 -0.474609,0.246094 -0.28125,0.222656 -0.509766,0.492187 -0.685547,0.808593 -0.175781,0.328125 -0.316407,0.673828 -0.421875,1.03711 -0.105469,0.363281 -0.175782,0.732421 -0.210938,1.107421 -0.03516,0.386719 -0.04687,0.75586 -0.03516,1.107422 0.175781,0.527344 0.421875,0.978516 0.738281,1.353516 0.328125,0.386719 0.66211,0.767578 1.001953,1.142578 0.152344,0.070313 0.263672,0.140625 0.333985,0.210938 0.08203,0.082031 0.164062,0.152343 0.246093,0.210937 0.09375,0.070313 0.181641,0.134766 0.263672,0.193359 0.09375,0.070313 0.175782,0.152344 0.246094,0.246094 C 35.982422,4 36.193359,4.082031 36.369141,4.1875 c 0.1875,0.117188 0.36914,0.234375 0.544921,0.351562 0.175782,0.128907 0.357422,0.246094 0.544922,0.351563 0.1875,0.105469 0.404297,0.1875 0.650391,0.246094 0.09375,0.105469 0.205078,0.1875 0.333984,0.246093 0.128907,0.070313 0.257813,0.134766 0.386719,0.19336 0.140625,0.070312 0.269531,0.140625 0.386719,0.210937 0.128906,0.070313 0.228515,0.164063 0.298828,0.28125 0.05859,-0.09375 0.140625,-0.128906 0.246094,-0.105468 0.105469,0.035156 0.205078,0.070312 0.298828,0.105468 0.05859,0.011719 0.105469,0 0.140625,-0.035156 0.04687,-0.035156 0.08789,-0.070312 0.123047,-0.105469 0.03516,-0.035156 0.06445,-0.058593 0.08789,-0.070312 0.03516,0 0.06445,0.029297 0.08789,0.08789 0.05859,0 0.07617,-0.029296 0.05273,-0.08789 -0.02344,-0.058594 -0.04102,-0.09961 -0.05273,-0.123047 0.09375,0.011719 0.169922,-0.011719 0.228516,-0.070313 0.07031,-0.046874 0.175781,-0.076171 0.316406,-0.08789 0.04687,-0.058594 0.05859,-0.105469 0.03516,-0.140625 C 41.056641,5.412109 41.044922,5.365234 41.044922,5.294922 41.396484,5.189453 41.619141,5.019531 41.712891,4.785156 41.806641,4.5625 41.8125,4.328125 41.730469,4.082031 41.648438,3.835938 41.501953,3.607422 41.291016,3.396484 41.080078,3.185547 40.851562,3.044922 40.605469,2.974609 40.042969,2.822266 39.509766,2.652344 39.005859,2.464844 38.513672,2.289062 38.109375,2.025391 37.792969,1.673828 37.511719,1.591797 37.259766,1.480469 37.037109,1.339844 36.826172,1.210938 36.621094,1.058594 36.421875,0.882812 36.234375,0.71875 36.052734,0.542969 35.876953,0.355469 35.712891,0.179688 35.537109,0.003906 35.349609,-0.171875 c 0.01172,-0.164063 -0.01758,-0.292969 -0.08789,-0.386719 -0.05859,-0.082031 -0.117188,-0.169922 -0.175781,-0.263672 0.02344,-0.175781 0.06445,-0.333984 0.123046,-0.474609 0.05859,-0.128906 0.123047,-0.257813 0.19336,-0.386719 0.773437,-0.234375 1.59375,-0.380859 2.460937,-0.439453 0.878907,-0.058594 1.757813,-0.09375 2.636719,-0.105469 0.08203,-0.117187 0.175781,-0.228515 0.28125,-0.333984 0.117188,-0.09375 0.222656,-0.199219 0.316406,-0.316406 0.09375,-0.105469 0.169922,-0.228516 0.228516,-0.369141 0.05859,-0.128906 0.07031,-0.292969 0.03516,-0.492187 -0.164062,-0.175782 -0.345703,-0.339844 -0.544922,-0.492188 -0.199218,-0.140625 -0.398437,-0.287109 -0.597656,-0.439453 z m 1.933594,0.035156 z m 9.298828,1.476563 c -0.07031,-0.199219 -0.175781,-0.404297 -0.316406,-0.615235 -0.128907,-0.199218 -0.28711,-0.380859 -0.47461,-0.544921 -0.175781,-0.152344 -0.375,-0.28125 -0.597656,-0.386719 -0.222656,-0.105469 -0.457031,-0.164063 -0.703125,-0.175781 -0.152344,0.035156 -0.257813,0.076171 -0.316406,0.123046 -0.04687,0.035157 -0.09961,0.070313 -0.158203,0.105469 -0.03516,0.023438 -0.07031,0.041016 -0.105469,0.052735 -0.02344,0.023437 -0.04687,0.041015 -0.07031,0.052734 l -0.210937,0.08789 0.07031,0.228516 c 0.02344,0.09375 0.01758,0.164063 -0.01758,0.210938 -0.03516,0.058593 -0.105469,0.134765 -0.210937,0.228515 -0.03516,0.035157 -0.07031,0.070313 -0.105469,0.105469 -0.03516,0.035156 -0.06445,0.070312 -0.08789,0.105469 l -0.298828,0.333984 0.47461,0.123047 c 0.292968,0.082031 0.486328,0.1875 0.580078,0.316406 0.105468,0.128906 0.146484,0.345703 0.123047,0.650391 -0.234375,0.046875 -0.433594,0.052734 -0.597657,0.017578 -0.152343,-0.035156 -0.310546,-0.076172 -0.474609,-0.123047 -0.210937,-0.058594 -0.427734,-0.111328 -0.650391,-0.158203 -0.210937,-0.035156 -0.445312,-0.052734 -0.703125,-0.052734 -0.09375,0 -0.18164,0 -0.263671,0 -0.08203,0.011718 -0.169922,0.023437 -0.263672,0.035156 l -0.175782,0.035156 c -0.02344,0.128906 -0.04687,0.199219 -0.07031,0.210938 -0.02344,0.023437 -0.04687,0.046875 -0.07031,0.070312 -0.05859,0.058594 -0.123047,0.134766 -0.193359,0.228516 -0.05859,0.105469 -0.07031,0.234375 -0.03516,0.386719 -0.05859,0.105468 -0.09375,0.210937 -0.105469,0.316406 -0.07031,-0.140625 -0.123047,-0.28711 -0.158203,-0.439453 l -0.07031,-0.175782 -0.175781,-0.035156 c -0.02344,-0.011719 -0.04102,-0.041015 -0.05273,-0.087891 -0.01172,-0.035156 -0.01758,-0.064453 -0.01758,-0.08789 l -0.08789,-0.298828 c -0.02344,-0.023438 -0.04687,-0.046875 -0.07031,-0.070313 -0.02344,-0.011719 -0.04687,-0.029297 -0.07031,-0.052734 -0.02344,-0.105469 -0.05273,-0.210938 -0.08789,-0.316406 -0.03516,-0.105469 -0.07031,-0.205079 -0.105468,-0.298829 -0.05859,-0.152343 -0.111329,-0.304687 -0.158203,-0.457031 -0.03516,-0.140625 -0.04688,-0.28125 -0.03516,-0.421875 l -0.07031,-0.193359 c -0.05859,-0.070313 -0.123047,-0.128906 -0.19336,-0.175781 -0.07031,-0.035157 -0.140625,-0.070313 -0.210937,-0.105469 -0.02344,-0.023438 -0.05859,-0.046875 -0.105469,-0.070313 -0.03516,-0.011718 -0.06445,-0.023437 -0.08789,-0.035156 l -0.05273,-0.193359 -0.210937,-0.035157 C 43.271484,-4.765625 43.177734,-4.783203 43.119141,-4.794922 43.072266,-4.806641 43.013672,-4.8125 42.943359,-4.8125 l -0.175781,0.017578 c -0.128906,0.105469 -0.228516,0.1875 -0.298828,0.246094 -0.07031,0.070312 -0.152344,0.134766 -0.246094,0.193359 -0.105468,0.140625 -0.164062,0.246094 -0.175781,0.316407 -0.01172,0.070312 -0.02344,0.134765 -0.03516,0.193359 -0.02344,0.070312 -0.03516,0.128906 -0.03516,0.175781 -0.01172,0.046875 -0.0293,0.082031 -0.05273,0.105469 l -0.228516,0.210937 0.19336,0.158204 0.01758,0.298828 c 0.234375,0.597656 0.480469,1.171875 0.738281,1.722656 0.269531,0.550781 0.544922,1.113281 0.826172,1.6875 0.09375,0.1875 0.181641,0.375 0.263672,0.5625 0.09375,0.1875 0.1875,0.375 0.28125,0.5625 -0.01172,0.035156 -0.01758,0.076172 -0.01758,0.123047 0,0.046875 0.01172,0.099609 0.03516,0.158203 0.128906,0.199219 0.234375,0.375 0.316406,0.527344 0.08203,0.164062 0.164063,0.328125 0.246094,0.492187 0.09375,0.199219 0.1875,0.392578 0.28125,0.580078 0.105469,0.1875 0.234375,0.38086 0.386719,0.580078 l 0.28125,0.123047 c 0.03516,0.011719 0.07617,0.023438 0.123047,0.035156 0.04687,0.023438 0.09961,0.035157 0.158203,0.035157 l 0.263672,-0.035157 c 0.328125,0.152344 0.615234,0.363282 0.861328,0.632813 0.246094,0.28125 0.498047,0.615234 0.755859,1.001953 l 0.175781,0.246094 0.228516,-0.140625 c 0.05859,-0.035156 0.140625,-0.070313 0.246094,-0.105469 0.105469,-0.023437 0.216797,-0.052734 0.333984,-0.08789 0.210938,-0.046876 0.410156,-0.09961 0.597656,-0.158204 0.1875,-0.058593 0.339844,-0.146484 0.457032,-0.263672 0.07031,-0.1875 0.111328,-0.328124 0.123047,-0.421874 0.01172,-0.09375 0.0293,-0.1875 0.05273,-0.28125 0.03516,-0.199219 0.06445,-0.398438 0.08789,-0.597657 0.03516,-0.199219 0.05859,-0.421875 0.07031,-0.667969 0.05859,-0.199218 0.105469,-0.398437 0.140625,-0.597656 0.04687,-0.1875 0.08789,-0.380859 0.123047,-0.580078 0.05859,-0.28125 0.117188,-0.55664 0.175781,-0.826172 0.05859,-0.257812 0.134766,-0.503906 0.228516,-0.738281 0.09375,0 0.152344,-0.005859 0.175781,-0.017578 0.05859,0.023437 0.117188,0.041015 0.175781,0.052734 0.07031,0.011719 0.146485,0.023438 0.228516,0.035157 l 0.193359,0.017578 0.07031,-0.175782 c 0.01172,-0.058593 0.07031,-0.117187 0.175781,-0.175781 0.152344,-0.011719 0.263672,-0.046875 0.333984,-0.105469 0.07031,-0.046875 0.134766,-0.099609 0.19336,-0.158203 0.04687,-0.046875 0.09375,-0.082031 0.140625,-0.105469 l 0.263672,-0.105468 -0.140625,-0.263672 c -0.117188,-0.210938 -0.28711,-0.416016 -0.509766,-0.615234 -0.210937,-0.1875 -0.451172,-0.345704 -0.720703,-0.47461 0.01172,-0.070312 0.01758,-0.140625 0.01758,-0.210937 0.01172,-0.058594 0.0293,-0.123047 0.05273,-0.19336 0.03516,-0.199219 0.06445,-0.404297 0.08789,-0.615234 0.02344,-0.210938 0.02344,-0.427735 0,-0.650391 l -0.03516,-0.070312 z m -5.080078,3.041015 c 0.351562,0.023438 0.667968,0.046875 0.949218,0.070313 0.292969,0.035156 0.615235,0.08789 0.966797,0.158203 -0.08203,0.351563 -0.169921,0.714844 -0.263671,1.089844 -0.09375,0.386719 -0.19336,0.767578 -0.298829,1.142578 L 47.619141,2.166016 C 47.384766,1.919922 47.15625,1.644531 46.933594,1.339844 46.722656,1.035156 46.541016,0.748047 46.388672,0.478516 46.318359,0.373047 46.248047,0.267578 46.177734,0.162109 c -0.07031,-0.105468 -0.134765,-0.210937 -0.193359,-0.316406 0.07031,0.011719 0.134766,0.017578 0.193359,0.017578 0.07031,0 0.134766,0.00586 0.19336,0.017578 z M 52.875,10.392578 c 0.199219,-0.01172 0.351562,-0.06445 0.457031,-0.158203 0.117188,-0.09375 0.175781,-0.222656 0.175781,-0.386719 C 53.484375,9.707031 53.443359,9.589844 53.384766,9.496094 53.302734,9.308594 53.226562,9.162109 53.15625,9.056641 53.097656,8.962891 53.033203,8.863281 52.962891,8.757812 52.857422,8.59375 52.751953,8.435547 52.646484,8.283203 52.552734,8.130859 52.441406,7.972656 52.3125,7.808594 52.230469,7.738281 52.166016,7.691406 52.119141,7.667969 52.013672,7.574219 51.902344,7.486328 51.785156,7.404297 51.667969,7.333984 51.544922,7.269531 51.416016,7.210938 51.205078,7.128906 51.005859,7.076172 50.818359,7.052734 50.642578,7.041016 50.449219,7.035156 50.238281,7.035156 h -0.246093 c -0.128907,0.011719 -0.263672,0.023438 -0.404297,0.035156 -0.128907,0.011719 -0.240235,0.029297 -0.333985,0.052735 -0.175781,0.09375 -0.316406,0.175781 -0.421875,0.246094 -0.09375,0.070312 -0.1875,0.140625 -0.28125,0.210937 C 48.445312,7.650391 48.357422,7.726562 48.287109,7.808594 48.216797,7.890625 48.152344,7.972656 48.09375,8.054688 48.046875,8.125 47.988281,8.189453 47.917969,8.248047 47.859375,8.318359 47.800781,8.353516 47.742188,8.353516 47.683594,8.341797 47.625,8.306641 47.566406,8.248047 47.519531,8.189453 47.466797,8.130859 47.408203,8.072266 47.384766,8.048828 47.361328,8.019531 47.337891,7.984375 47.314453,7.960938 47.291016,7.9375 47.267578,7.914062 47.197266,7.691406 47.056641,7.509766 46.845703,7.369141 46.740234,7.310547 46.658203,7.275391 46.599609,7.263672 46.541016,7.251953 46.488281,7.234375 46.441406,7.210938 L 46.265625,7.175781 46.089844,7.140625 45.914062,7.158203 C 45.738281,7.099609 45.591797,7.070312 45.474609,7.070312 c -0.234375,0.011719 -0.410156,0.064454 -0.527343,0.158204 -0.105469,0.105468 -0.158204,0.234375 -0.158204,0.386718 0.02344,0.140625 0.06445,0.257813 0.123047,0.351563 0.09375,0.1875 0.169922,0.333984 0.228516,0.439453 0.07031,0.105469 0.140625,0.210938 0.210937,0.316406 0.09375,0.152344 0.1875,0.304688 0.28125,0.457032 0.105469,0.152343 0.222657,0.310546 0.351563,0.474609 0.08203,0.070312 0.146484,0.117187 0.193359,0.140625 0.105469,0.09375 0.216797,0.175781 0.333985,0.246094 0.117187,0.08203 0.240234,0.152343 0.36914,0.210937 0.210938,0.08203 0.404297,0.128906 0.580079,0.140625 0.1875,0.02344 0.386718,0.03516 0.597656,0.03516 h 0.246094 c 0.269531,-0.02344 0.515624,-0.05273 0.738281,-0.08789 0.175781,-0.09375 0.310547,-0.175782 0.404297,-0.246094 0.105468,-0.07031 0.205078,-0.140625 0.298828,-0.210938 0.105468,-0.070312 0.193359,-0.146484 0.263672,-0.228515 0.07031,-0.082031 0.134765,-0.164063 0.193359,-0.246094 0.140625,-0.199219 0.263672,-0.292969 0.369141,-0.28125 0.05859,0 0.111328,0.023438 0.158203,0.070313 0.04687,0.058593 0.09961,0.123046 0.158203,0.193359 0.02344,0.035156 0.07031,0.087891 0.140625,0.158203 0.07031,0.222656 0.210937,0.404297 0.421875,0.544922 0.164062,0.08203 0.298828,0.134766 0.404297,0.158203 l 0.175781,0.03516 0.175781,0.03516 h 0.175781 c 0.140626,0.04687 0.28711,0.07031 0.439454,0.07031 h 0.05273 z M 52.611328,-4.636719 Z m 10.248047,5.273438 c -0.01172,-0.140625 0,-0.275391 0.03516,-0.404297 0.03516,-0.128906 0.07617,-0.257813 0.123047,-0.386719 0.05859,-0.117187 0.111328,-0.240234 0.158203,-0.369141 0.04687,-0.128906 0.08203,-0.257812 0.105469,-0.386718 0.02344,-0.164063 0.02344,-0.345703 0,-0.544922 -0.02344,-0.1875 -0.06445,-0.375 -0.123047,-0.5625 -0.05859,-0.175781 -0.134765,-0.339844 -0.228515,-0.492188 -0.09375,-0.140625 -0.205079,-0.246093 -0.333985,-0.316406 -0.164062,-0.210937 -0.363281,-0.375 -0.597656,-0.492187 C 61.763676,-3.435547 61.546879,-3.576172 61.34766,-3.740234 61.218754,-3.822266 61.07227,-3.880859 60.908207,-3.916016 60.755863,-3.951172 60.59766,-3.986328 60.433598,-4.021484 60.304692,-4.091797 60.152348,-4.167969 59.976566,-4.25 c -0.175781,-0.070312 -0.357421,-0.140625 -0.544921,-0.210938 -0.1875,-0.058593 -0.375,-0.105468 -0.5625,-0.140624 -0.1875,-0.023438 -0.351563,-0.029297 -0.492188,-0.017579 -0.351562,-0.128906 -0.697265,-0.210937 -1.037109,-0.246093 -0.328125,-0.046875 -0.714844,-0.023438 -1.160156,0.070312 -0.421876,-0.058594 -0.814454,-0.041016 -1.177735,0.052734 -0.351562,0.09375 -0.667969,0.240235 -0.949219,0.439454 -0.269531,0.210937 -0.509765,0.457031 -0.720703,0.738281 -0.199219,0.292969 -0.363281,0.597656 -0.492187,0.914062 -0.09375,0.667969 -0.07031,1.271485 0.07031,1.810547 0.140625,0.550782 0.339844,1.054688 0.597656,1.511719 0.269532,0.46875 0.574219,0.896484 0.914063,1.283203 0.339844,0.398438 0.667969,0.785156 0.984375,1.160156 0.07031,-0.023437 0.123047,-0.023437 0.158203,0 0.04687,0.035157 0.08789,0.076172 0.123047,0.123047 0.03516,0.058594 0.07031,0.111328 0.105469,0.158203 0.04687,0.046875 0.09961,0.076172 0.158203,0.087891 0.08203,0.175781 0.199219,0.304687 0.351562,0.386719 0.164063,0.09375 0.292969,0.222656 0.386719,0.386718 0.105469,0.023438 0.193359,0.058594 0.263672,0.105469 0.07031,0.046875 0.134766,0.09961 0.193359,0.158203 0.07031,0.058594 0.140625,0.111328 0.210938,0.158204 0.07031,0.058593 0.152344,0.099609 0.246094,0.123046 v 0.19336 c 0.210937,0.09375 0.363281,0.199218 0.457031,0.316406 0.105469,0.128906 0.228515,0.28125 0.369141,0.457031 0.105468,0.011719 0.1875,0.017578 0.246093,0.017578 0.07031,0 0.169922,0.011719 0.298828,0.035157 0.09375,0.164062 0.175782,0.287109 0.246094,0.36914 0.08203,0.082032 0.199219,0.169922 0.351563,0.263672 C 59.712893,6.384766 59.865236,6.337891 60.029299,6.314453 60.20508,6.291016 60.357424,6.214844 60.48633,6.085938 60.49805,5.96875 60.5332,5.875 60.591799,5.804688 60.650389,5.746094 60.714846,5.6875 60.785158,5.628906 c 0.07031,-0.046875 0.134766,-0.099609 0.19336,-0.158203 0.07031,-0.058594 0.117187,-0.140625 0.140625,-0.246094 0.04687,-0.011718 0.07617,-0.00586 0.08789,0.017579 0.02344,0.023437 0.05859,0.029296 0.105469,0.017578 0.03516,-0.164063 0.07617,-0.275391 0.123047,-0.333985 0.04687,-0.046875 0.09375,-0.146484 0.140625,-0.298828 -0.05859,-0.117187 -0.105469,-0.240234 -0.140625,-0.369141 -0.02344,-0.117187 -0.09375,-0.205078 -0.210938,-0.263671 -0.01172,-0.082032 0.01172,-0.128907 0.07031,-0.140625 0.05859,0 0.09375,-0.029297 0.105469,-0.087891 C 61.41211,3.660156 61.39449,3.583984 61.34766,3.537109 61.62891,3.080078 61.880863,2.59375 62.10352,2.078125 62.326176,1.574219 62.578129,1.09375 62.859379,0.636719 Z m -2.197266,-1.669922 c 0.04687,0.128906 0.105469,0.234375 0.175782,0.316406 0.08203,0.082031 0.128906,0.205078 0.140625,0.369141 -0.05859,0.09375 -0.09375,0.164062 -0.105469,0.210937 -0.01172,0.058594 -0.01758,0.146485 -0.01758,0.263672 C 60.597656,0.490234 60.375,0.876953 60.1875,1.287109 60,1.708984 59.789062,2.101562 59.554688,2.464844 59.53125,2.417969 59.490234,2.371094 59.431641,2.324219 59.373047,2.277344 59.308594,2.289062 59.238281,2.359375 59.214844,2.265625 59.173828,2.195312 59.115234,2.148438 59.056641,2.113281 58.992188,2.095703 58.921875,2.095703 58.851562,2.107422 58.775391,2.125 58.693359,2.148438 58.623047,2.183594 58.558594,2.224609 58.5,2.271484 58.160156,2.001953 57.820312,1.738281 57.480469,1.480469 57.140625,1.222656 56.835938,0.923828 56.566406,0.583984 c -0.04687,-0.023437 -0.07617,-0.035156 -0.08789,-0.035156 -0.01172,0.011719 -0.04687,0.00586 -0.105469,-0.017578 -0.09375,-0.222656 -0.210938,-0.427734 -0.351563,-0.615234 -0.128906,-0.175782 -0.257812,-0.357422 -0.386718,-0.544922 -0.128907,-0.1875 -0.240235,-0.386719 -0.333985,-0.597656 -0.09375,-0.210938 -0.146484,-0.457032 -0.158203,-0.738282 0.199219,-0.164062 0.433594,-0.263672 0.703125,-0.298828 0.269531,-0.035156 0.544922,-0.041016 0.826172,-0.017578 0.292969,0.023438 0.574219,0.058594 0.84375,0.105469 0.28125,0.058593 0.539063,0.08789 0.773437,0.08789 0.492188,0.117188 0.914063,0.269532 1.265626,0.457032 0.351562,0.199218 0.720703,0.398437 1.107421,0.597656 z"
           style="fill:#000000;fill-opacity:1;fill-rule:nonzero;stroke:none"
           id="path1619"
           inkscape:connector-curvature="0" /></g><g
         id="g1625"
         transform="translate(33,1456.73)"
         style="fill:#000000"><path
           d="m 0,-3.73 z m 2.59,6.590001 c 0.166667,0 0.306667,-0.073334 0.42,-0.22 C 3.123334,2.493334 3.27,2.190001 3.45,1.73 3.87,0.643333 4.28,-1.059999 4.68,-3.379999 4.686667,-3.406666 4.69,-3.446666 4.69,-3.5 4.69,-3.546666 4.656667,-3.599999 4.59,-3.66 4.53,-3.713333 4.44,-3.74 4.32,-3.74 4.206667,-3.74 4.11,-3.713333 4.03,-3.66 3.95,-3.599999 3.896667,-3.506666 3.87,-3.379999 3.843333,-3.246666 3.793334,-2.99 3.72,-2.61 3.56,-1.763332 3.453334,-1.323333 3.4,-1.289999 c -0.08,0.046666 -0.346666,0.096666 -0.8,0.15 -0.446667,0.053333 -0.743333,0.08 -0.89,0.08 -0.146667,0 -0.233333,-0.013334 -0.26,-0.04 C 1.33,-1.206666 1.166667,-2.016666 0.96,-3.53 0.933333,-3.656666 0.806667,-3.719999 0.58,-3.719999 c -0.226667,0 -0.34,0.096666 -0.34,0.29 0,0.48 0.176667,1.396666 0.53,2.75 C 1.123333,0.673334 1.416667,1.57 1.65,2.01 1.943334,2.576667 2.256667,2.860001 2.59,2.860001 Z m -0.04,-1.11 c -0.1,0 -0.273333,-0.296667 -0.52,-0.89 C 1.783333,0.273334 1.66,-0.09 1.66,-0.23 c 0,-0.033333 0.00667,-0.056666 0.02,-0.069999 0.053333,-0.053334 0.263333,-0.1 0.63,-0.140001 0.366667,-0.04 0.61,-0.06 0.73,-0.06 0.12,0 0.186667,0.006667 0.2,0.02 0.013333,0.02 0.02,0.073334 0.02,0.160001 0,0.093333 -0.09,0.46 -0.27,1.1 -0.18,0.646667 -0.326666,0.97 -0.44,0.97 z M 4.882812,-3.73 Z m 2.77,4.680001 -0.01,1.93 c 0,0.36 0.113333,0.54 0.339999,0.54 0.233334,0 0.363335,-0.1 0.39,-0.3 0.013334,-0.086667 0.030001,-0.61 0.05,-1.570001 0.02,-0.959999 0.050001,-1.859999 0.090001,-2.7 0.046666,-0.84 0.069999,-1.623334 0.069999,-2.35 0,-0.2 -0.149999,-0.299999 -0.45,-0.299999 -0.199999,0 -0.299999,0.14 -0.299999,0.42 -0.286667,-0.226667 -0.626667,-0.34 -1.02,-0.34 -0.5,0 -0.906667,0.186666 -1.22,0.559999 -0.306667,0.373334 -0.460001,0.833334 -0.460001,1.38 0,0.546667 0.110001,1.056668 0.33,1.530001 0.226667,0.48 0.576667,0.823333 1.050001,1.03 0.293333,0.126666 0.576666,0.19 0.85,0.19 0.099999,0 0.196666,-0.006667 0.289999,-0.02 z m 0.050001,-1.37 c -0.046667,0.146666 -0.103334,0.256667 -0.17,0.33 -0.066667,0.08 -0.14,0.126666 -0.22,0.14 -0.073333,0.02 -0.163334,0.03 -0.270001,0.03 -0.106666,0 -0.236666,-0.04 -0.39,-0.12 -0.153333,-0.08 -0.283333,-0.210001 -0.389999,-0.39 -0.213334,-0.36 -0.320001,-0.74 -0.320001,-1.140001 0,-0.393333 0.076667,-0.716666 0.23,-0.969999 C 6.332813,-2.786666 6.556146,-2.91 6.842813,-2.91 c 0.293333,0 0.523333,0.143334 0.69,0.43 0.166666,0.286667 0.25,0.653334 0.25,1.100001 0,0.5 -0.026667,0.82 -0.08,0.96 z M 8.779297,-3.73 Z m 2.149999,4.660001 c 0.480001,0 0.873334,-0.23 1.180001,-0.69 0.313333,-0.46 0.47,-1.013334 0.47,-1.660001 0,-0.639999 -0.16,-1.186666 -0.48,-1.639999 -0.313333,-0.453334 -0.733333,-0.680001 -1.26,-0.680001 -0.52,0 -0.94,0.230001 -1.26,0.690001 -0.320001,0.466666 -0.48,0.983332 -0.48,1.549999 0,0.726667 0.146666,1.306667 0.44,1.740001 0.313333,0.46 0.776666,0.69 1.389999,0.69 z m -0.119998,-0.82 c -0.28,0 -0.510001,-0.146667 -0.690001,-0.44 -0.18,-0.293334 -0.27,-0.603333 -0.27,-0.93 0,-0.506667 0.1,-0.893334 0.3,-1.16 0.2,-0.266667 0.426667,-0.400001 0.68,-0.400001 0.453333,0 0.743333,0.196667 0.87,0.59 0.05333,0.186667 0.08,0.420001 0.08,0.7 0,1.093334 -0.323333,1.640001 -0.969999,1.640001 z M 12.8125,-3.73 Z m 0.63,4.670001 0.5,-0.01 c 0.113334,0 0.176666,0.003333 0.19,0.01 v 2.05 c 0.0067,0.113333 0.06333,0.21 0.17,0.29 0.106666,0.08 0.206667,0.12 0.3,0.12 0.09333,0 0.166667,-0.03 0.22,-0.09 0.06,-0.06 0.08667,-0.153333 0.08,-0.28 -0.0067,-0.126667 -0.01,-0.82 -0.01,-2.08 l 1.17,0.04 c 0.199999,0 0.299999,-0.116667 0.299999,-0.350001 0,-0.173333 -0.05333,-0.303332 -0.16,-0.389999 -0.1,-0.086667 -0.209999,-0.133334 -0.329999,-0.14 C 15.759167,0.103334 15.645834,0.1 15.5325,0.1 l -0.609999,0.010001 c 0,-0.273333 0.02667,-0.813333 0.08,-1.62 0.06,-0.806667 0.106666,-1.33 0.139999,-1.570001 0.03333,-0.233333 0.04,-0.386666 0.02,-0.46 -0.02,-0.066667 -0.05667,-0.113333 -0.11,-0.139999 -0.08667,-0.04 -0.203333,-0.060001 -0.35,-0.060001 -0.146666,0 -0.233333,0.08 -0.26,0.24 -0.133333,0.873334 -0.223333,2.073334 -0.269999,3.6 -0.06,-0.006666 -0.29,-0.009999 -0.690001,-0.009999 -0.4,0 -0.6,0.116666 -0.6,0.35 0,0.333333 0.186666,0.5 0.56,0.5 z M 16.25,-3.73 Z m 1.82,4.630001 c 0.353334,0 0.69,-0.103334 1.01,-0.31 0.320002,-0.206667 0.480001,-0.463334 0.480001,-0.77 0,-0.300001 -0.130001,-0.593334 -0.390001,-0.88 -0.26,-0.28 -0.606666,-0.45 -1.039999,-0.510001 -0.186666,-0.026666 -0.466667,-0.04 -0.84,-0.04 0.07333,-0.566666 0.216665,-0.939999 0.429998,-1.12 0.06667,-0.073332 0.156668,-0.109999 0.270001,-0.109999 0.413334,0 0.76,0.13 1.040001,0.389999 0.28,0.266668 0.479999,0.400001 0.6,0.400001 0.05333,0 0.133331,-0.05 0.24,-0.150001 0.106666,-0.099999 0.16,-0.193332 0.16,-0.28 0,-0.173333 -0.210001,-0.423333 -0.630001,-0.75 -0.186667,-0.153332 -0.413334,-0.283332 -0.680001,-0.39 -0.26,-0.099999 -0.503332,-0.15 -0.729999,-0.15 -0.58,0 -1.006666,0.373333 -1.280001,1.12 -0.173332,0.46 -0.259998,0.966668 -0.259998,1.520001 0,0.553333 0.129999,1.03 0.389999,1.43 0.26,0.4 0.67,0.6 1.23,0.6 z m 0.05,-0.69 c -0.253334,0 -0.470001,-0.143333 -0.650002,-0.43 -0.06667,-0.1 -0.129999,-0.326667 -0.189998,-0.680001 0.933332,0 1.399999,0.23 1.399999,0.690001 0,0.28 -0.186666,0.42 -0.559999,0.42 z M 22.539062,-3.73 Z m 0.360001,4.280001 c 0.02667,0.113333 0.08333,0.206667 0.17,0.28 0.08667,0.08 0.173332,0.12 0.26,0.12 0.09333,0 0.163332,-0.016667 0.209999,-0.05 0.05333,-0.033334 0.08333,-0.063333 0.09,-0.09 0.01333,-0.026667 0.02667,-0.073334 0.04,-0.14 -0.04,-0.52 -0.06,-0.990001 -0.06,-1.410001 0,-0.413333 0.05,-0.889999 0.15,-1.429999 0.1,-0.533334 0.210001,-0.8 0.33,-0.8 0.18,0 0.406667,0.1 0.68,0.3 0.280001,0.2 0.48,0.41 0.6,0.63 -0.08,0.96 -0.119999,1.783333 -0.119999,2.469999 0,0.14 0.04333,0.260001 0.13,0.360001 0.09333,0.1 0.203333,0.15 0.33,0.15 0.206667,0 0.309999,-0.14 0.309999,-0.420001 0,-0.473333 0.03333,-1.176666 0.1,-2.109999 0.07333,-0.933334 0.146668,-1.526668 0.22,-1.780001 0.01333,-0.053333 0.02,-0.116667 0.02,-0.189999 0,-0.066667 -0.04667,-0.130001 -0.139999,-0.190001 -0.08667,-0.066667 -0.203335,-0.099999 -0.350001,-0.099999 -0.139999,0 -0.233333,0.079999 -0.28,0.239999 -0.01333,0.133334 -0.04666,0.333333 -0.1,0.600001 -0.466667,-0.486667 -0.936666,-0.730001 -1.41,-0.730001 -0.220001,0 -0.416668,0.083333 -0.59,0.25 -0.173334,0.166667 -0.309999,0.393334 -0.41,0.680001 -0.173334,0.553333 -0.26,1.073332 -0.26,1.559999 0,0.486667 0.02667,1.086667 0.08,1.800001 z M 26.542969,-3.73 Z m 0.950001,-0.01 c -0.173335,0 -0.276667,0.096667 -0.310002,0.29 0,1.346667 -0.08,2.546667 -0.24,3.600001 0,0.133333 0.04667,0.253333 0.140002,0.36 0.1,0.106666 0.209999,0.16 0.33,0.16 0.126665,0 0.219999,-0.07 0.279998,-0.21 0.246668,0.326666 0.576668,0.49 0.99,0.49 0.526667,0 0.933334,-0.253334 1.220001,-0.76 0.333334,0.48 0.773333,0.72 1.32,0.72 0.553335,0 0.966667,-0.22 1.239998,-0.66 0.18,-0.273334 0.306667,-0.633334 0.380001,-1.080001 0.07333,-0.446667 0.110001,-1.08 0.110001,-1.9 0,-0.319999 -0.03333,-0.569999 -0.1,-0.75 -0.06667,-0.173333 -0.206669,-0.26 -0.420002,-0.26 -0.173332,0 -0.259998,0.11 -0.259998,0.33 l 0.03,1.25 c 0,1.500001 -0.39,2.250001 -1.17,2.250001 -0.246666,0 -0.419999,-0.086667 -0.519999,-0.260001 -0.113335,-0.206666 -0.180002,-0.423333 -0.200001,-0.65 -0.02667,-0.4 -0.04,-0.763333 -0.04,-1.09 v -1.45 c 0,-0.106666 -0.05333,-0.196666 -0.16,-0.269999 -0.106667,-0.073334 -0.216668,-0.110001 -0.33,-0.110001 -0.146666,0 -0.24,0.096667 -0.280001,0.29 l 0.03,2.070001 c 0,0.733333 -0.123333,1.19 -0.369999,1.37 -0.120001,0.086666 -0.303334,0.13 -0.550002,0.13 -0.239999,0 -0.42,-0.09 -0.539999,-0.270001 -0.113332,-0.179999 -0.17,-0.469999 -0.17,-0.87 l 0.06,-1.859999 C 27.962969,-3.453333 27.806303,-3.74 27.49297,-3.74 Z m 8.151561,0.01 z m 3.169998,4.670001 c 0.293335,0 0.440003,-0.25 0.440003,-0.75 0,-0.053334 0,-0.110001 0,-0.170001 l -0.02,-0.699999 c -0.0067,-0.220001 -0.01,-0.436667 -0.01,-0.650001 l 0.149998,-2.259999 c 0,-0.166667 -0.169998,-0.25 -0.509999,-0.25 -0.02,0 -0.07,0 -0.150001,0 -0.07333,0 -0.126667,0.03 -0.16,0.089999 -0.02667,0.06 -0.03,0.133333 -0.01,0.22 0.02667,0.086667 0.02,0.183334 -0.02,0.29 -0.306667,-0.326667 -0.713337,-0.49 -1.220001,-0.49 -0.939999,0 -1.41,0.726667 -1.41,2.180001 0,0.806666 0.150002,1.416666 0.450001,1.83 0.306667,0.413333 0.743332,0.62 1.309998,0.62 0.266666,0 0.533336,-0.046667 0.800003,-0.14 0.08667,0.12 0.206665,0.18 0.359996,0.18 z m -1.039997,-0.91 c -0.380001,0 -0.663334,-0.11 -0.850002,-0.33 -0.186665,-0.220001 -0.279999,-0.623334 -0.279999,-1.21 0,-0.986667 0.266667,-1.480001 0.799999,-1.480001 0.14,0 0.293335,0.063334 0.460003,0.190001 0.173333,0.126666 0.293332,0.269999 0.359997,0.43 0.126667,0.36 0.190003,0.753332 0.190003,1.179999 0,0.426668 -0.05333,0.736668 -0.16,0.930001 -0.100003,0.193333 -0.273335,0.29 -0.520001,0.29 z M 39.560547,-3.73 Z m 0.950001,-0.01 c -0.173336,0 -0.276669,0.096667 -0.310002,0.29 0,1.346667 -0.08,2.546667 -0.239998,3.600001 0,0.133333 0.04667,0.253333 0.14,0.36 0.1,0.106666 0.209999,0.16 0.329998,0.16 0.126667,0 0.220001,-0.07 0.280002,-0.21 0.246666,0.326666 0.576664,0.49 0.989998,0.49 0.526669,0 0.933335,-0.253334 1.220001,-0.76 0.333333,0.48 0.773335,0.72 1.32,0.72 0.553333,0 0.966667,-0.22 1.239998,-0.66 0.18,-0.273334 0.306667,-0.633334 0.380001,-1.080001 0.07333,-0.446667 0.110001,-1.08 0.110001,-1.9 0,-0.319999 -0.03333,-0.569999 -0.1,-0.75 -0.06667,-0.173333 -0.206669,-0.26 -0.420002,-0.26 -0.173332,0 -0.259998,0.11 -0.259998,0.33 l 0.03,1.25 c 0,1.500001 -0.39,2.250001 -1.169998,2.250001 -0.24667,0 -0.420002,-0.086667 -0.520001,-0.260001 -0.113335,-0.206666 -0.18,-0.423333 -0.200001,-0.65 -0.02667,-0.4 -0.04,-0.763333 -0.04,-1.09 v -1.45 c 0,-0.106666 -0.05333,-0.196666 -0.159999,-0.269999 C 43.02388,-3.703333 42.913879,-3.74 42.800549,-3.74 c -0.146668,0 -0.240002,0.096667 -0.280003,0.29 l 0.03,2.070001 c 0,0.733333 -0.123333,1.19 -0.370003,1.37 -0.119999,0.086666 -0.303333,0.13 -0.549999,0.13 -0.240002,0 -0.420002,-0.09 -0.540001,-0.270001 -0.113331,-0.179999 -0.169999,-0.469999 -0.169999,-0.87 l 0.06,-1.859999 c 0,-0.573334 -0.156666,-0.860001 -0.469996,-0.860001 z m 5.846874,0.01 z m 1.040001,6.320001 c 0.119999,0 0.233333,-0.056667 0.34,-0.17 0.106667,-0.113334 0.16,-0.233334 0.16,-0.36 0,-0.12 -0.06,-0.243333 -0.180001,-0.37 C 47.604088,1.563334 47.484089,1.5 47.357422,1.5 c -0.126667,0 -0.243332,0.053334 -0.349999,0.160001 -0.100002,0.106666 -0.150001,0.243333 -0.150001,0.41 0,0.32 0.173332,0.493333 0.52,0.52 0.0067,0 0.01333,0 0.02,0 z M 47.817421,-2.65 l 0.01,-0.699999 c 0,-0.126667 -0.05,-0.233334 -0.150001,-0.32 C 47.577419,-3.75 47.470753,-3.79 47.357422,-3.79 c -0.166668,0 -0.253334,0.083333 -0.259998,0.25 -0.08667,2.126667 -0.130002,3.303334 -0.130002,3.530001 0,0.226667 0.01,0.503333 0.03,0.83 0.01333,0.12 0.09,0.179999 0.23,0.179999 0.353336,0 0.553337,-0.143333 0.600002,-0.429999 0.02,-0.146667 0.03,-0.263334 0.03,-0.350001 l -0.04,-0.629999 V -2.65 Z m 0.776329,-1.08 z m 0.240002,2.340001 c 0,0.446666 0.116665,0.853333 0.349998,1.219999 0.240002,0.366667 0.543335,0.640001 0.91,0.820001 0.366665,0.186667 0.723331,0.28 1.07,0.28 0.346668,0 0.623333,-0.043334 0.830002,-0.13 0.213333,-0.08 0.319999,-0.19 0.319999,-0.33 0,-0.133334 -0.04,-0.270001 -0.120003,-0.410001 -0.07333,-0.133333 -0.173332,-0.199999 -0.299999,-0.199999 -0.04666,0 -0.176666,0.036666 -0.389999,0.109999 -0.206669,0.080001 -0.34,0.120001 -0.399998,0.120001 -0.386669,0 -0.716667,-0.143334 -0.990002,-0.43 -0.273334,-0.28 -0.409999,-0.653334 -0.409999,-1.12 0,-0.466667 0.07333,-0.816668 0.220001,-1.05 0.153332,-0.226667 0.413334,-0.34 0.779999,-0.34 0.146667,0 0.396667,0.083333 0.75,0.25 0.36,0.173333 0.583332,0.26 0.669998,0.26 0.08667,0 0.156669,-0.026667 0.210003,-0.08 0.05333,-0.053334 0.08,-0.120001 0.08,-0.2 0,-0.160001 -0.103333,-0.330001 -0.309998,-0.51 -0.200001,-0.173333 -0.450001,-0.320001 -0.75,-0.440001 -0.299999,-0.113333 -0.57,-0.17 -0.810001,-0.17 -0.533333,0 -0.953335,0.21 -1.260002,0.63 -0.3,0.42 -0.449997,0.993334 -0.449997,1.720001 z M 52.470703,-3.73 Z m 0.68,5.640001 c 0,0.14 0.09667,0.29 0.290001,0.45 C 53.640705,2.52 53.82737,2.6 54.000702,2.6 c 0.18,0 0.323334,-0.026666 0.43,-0.08 0.106667,-0.053332 0.180001,-0.113332 0.220001,-0.179999 0.106667,-0.173334 0.203335,-0.26 0.290001,-0.26 0.08667,0 0.179997,0.08 0.279999,0.24 C 55.32737,2.48 55.424038,2.56 55.510704,2.56 c 0.09333,0 0.173332,-0.04 0.239998,-0.119999 0.06667,-0.08 0.100002,-0.163334 0.100002,-0.25 0,-0.24 -0.1,-0.423334 -0.299999,-0.550001 -0.193333,-0.126666 -0.383335,-0.189999 -0.57,-0.189999 -0.18,0 -0.319999,0.036667 -0.420002,0.11 -0.100002,0.079999 -0.186668,0.156666 -0.259998,0.23 -0.07333,0.08 -0.153336,0.12 -0.240002,0.12 -0.04,0 -0.123333,-0.076667 -0.25,-0.230001 -0.126667,-0.146666 -0.233333,-0.219999 -0.319999,-0.219999 -0.08667,0 -0.166668,0.04 -0.240002,0.12 -0.06667,0.086666 -0.1,0.196667 -0.1,0.33 z m 2.489998,-0.97 c 0.293335,0 0.440003,-0.25 0.440003,-0.75 0,-0.053334 0,-0.110001 0,-0.170001 l -0.02,-0.699999 c -0.0067,-0.220001 -0.01,-0.436667 -0.01,-0.650001 l 0.149998,-2.259999 c 0,-0.166667 -0.169999,-0.25 -0.509999,-0.25 -0.02,0 -0.07,0 -0.150001,0 -0.07333,0 -0.126667,0.03 -0.16,0.089999 -0.02667,0.06 -0.03,0.133333 -0.01,0.22 0.02666,0.086667 0.02,0.183334 -0.02,0.29 -0.306667,-0.326667 -0.713337,-0.49 -1.220001,-0.49 -0.939999,0 -1.41,0.726667 -1.41,2.180001 0,0.806666 0.150002,1.416666 0.450001,1.83 0.306667,0.413333 0.743332,0.62 1.309997,0.62 0.266667,0 0.533337,-0.046667 0.800003,-0.14 0.08667,0.12 0.206666,0.18 0.359997,0.18 z m -1.039997,-0.91 c -0.380001,0 -0.663334,-0.11 -0.850002,-0.33 -0.186665,-0.220001 -0.279999,-0.623334 -0.279999,-1.21 0,-0.986667 0.266667,-1.480001 0.799999,-1.480001 0.14,0 0.293335,0.063334 0.460003,0.190001 0.173332,0.126666 0.293331,0.269999 0.359997,0.43 0.126667,0.36 0.190002,0.753332 0.190002,1.179999 0,0.426668 -0.05333,0.736668 -0.159999,0.930001 -0.100003,0.193333 -0.273335,0.29 -0.520001,0.29 z M 56.386719,-3.73 Z m 2.150001,4.660001 c 0.48,0 0.873333,-0.23 1.180001,-0.69 0.313331,-0.46 0.469997,-1.013334 0.469997,-1.660001 0,-0.639999 -0.16,-1.186666 -0.48,-1.639999 C 59.393383,-3.513333 58.973385,-3.74 58.44672,-3.74 c -0.52,0 -0.940002,0.230001 -1.260002,0.690001 -0.32,0.466666 -0.48,0.983332 -0.48,1.549999 0,0.726667 0.146668,1.306667 0.439999,1.740001 0.313335,0.46 0.776669,0.69 1.390003,0.69 z m -0.120002,-0.82 c -0.279999,0 -0.509999,-0.146667 -0.689999,-0.44 -0.18,-0.293334 -0.270001,-0.603333 -0.270001,-0.93 0,-0.506667 0.1,-0.893334 0.3,-1.16 0.2,-0.266667 0.426666,-0.400001 0.68,-0.400001 0.453335,0 0.743336,0.196667 0.870003,0.59 0.05333,0.186667 0.08,0.420001 0.08,0.7 0,1.093334 -0.323334,1.640001 -0.970001,1.640001 z"
           style="fill:#000000;fill-opacity:1;fill-rule:nonzero;stroke:none"
           id="path1623"
           inkscape:connector-curvature="0" /></g><g
         id="g1629"
         transform="rotate(9.3878056,-8952.1229,1266.6692)"
         style="fill:#000000"><path
           d="m 2.80029,2.403198 c 0,-1.104569 -0.626866,-2 -1.400145,-2 -0.773279,0 -1.400145,0.895431 -1.400145,2 0,1.10457 0.626866,2 1.400145,2 0.773279,0 1.400145,-0.89543 1.400145,-2 z"
           style="fill:#000000;fill-opacity:1;fill-rule:nonzero;stroke:none"
           id="path1627"
           inkscape:connector-curvature="0" /></g><g
         id="g1633"
         transform="rotate(-15.476367,5485.9912,405.01648)"
         style="fill:#000000"><path
           d="m 2.768616,2.593742 c 0,-1.104569 -0.619776,-2 -1.384308,-2 -0.764532,0 -1.384308,0.895431 -1.384308,2 0,1.10457 0.619776,2 1.384308,2 0.764532,0 1.384308,-0.89543 1.384308,-2 z"
           style="fill:#000000;fill-opacity:1;fill-rule:nonzero;stroke:none"
           id="path1631"
           inkscape:connector-curvature="0" /></g><g
         id="g1637"
         transform="rotate(-61.008476,1300.1241,659.01391)"
         style="fill:#000000"><path
           d="m 2.949402,2.518539 c 0,-1.104569 -0.660247,-2 -1.474701,-2 -0.814455,0 -1.474701,0.895431 -1.474701,2 0,1.10457 0.660246,2 1.474701,2 0.814454,0 1.474701,-0.89543 1.474701,-2 z"
           style="fill:#000000;fill-opacity:1;fill-rule:nonzero;stroke:none"
           id="path1635"
           inkscape:connector-curvature="0" /></g></g></g></svg>